<?xml version="1.0" encoding="UTF-8" standalone="no"?>
<svg
   xmlns:dc="http://purl.org/dc/elements/1.1/"
   xmlns:cc="http://creativecommons.org/ns#"
   xmlns:rdf="http://www.w3.org/1999/02/22-rdf-syntax-ns#"
   xmlns:svg="http://www.w3.org/2000/svg"
   xmlns="http://www.w3.org/2000/svg"
   version="1.1"
   id="svg10"
   xml:space="preserve"
   width="1000"
   height="338.19019"
   viewBox="0 0 1000 338.19018"><metadata
     id="metadata16"><rdf:RDF><cc:Work
         rdf:about=""><dc:format>image/svg+xml</dc:format><dc:type
           rdf:resource="http://purl.org/dc/dcmitype/StillImage" /><dc:title></dc:title></cc:Work></rdf:RDF></metadata><defs
     id="defs14" /><g
     id="g18"
     transform="matrix(1.3333333,0,0,-1.3333333,337.59342,460.20141)"><g
       id="g20"
       transform="matrix(0.63959111,0,0,0.63959111,-280.49013,23.342081)"
       style="stroke-width:0.15635"><path
         d="m 72.6758,372.535 h -30 V 503.148 H 173.289 v -30 H 72.6758 V 372.535"
         style="fill:#da1745;fill-opacity:1;fill-rule:nonzero;stroke:none;stroke-width:0.15635"
         id="path22" /><path
         d="m 210.625,261.871 v -26.437 h -64.426 v -34.43 h 57.766 v -26.223 h -57.766 v -39.98 h 64.426 v -26.223 h -95.527 v 153.293 h 95.527"
         style="fill:#0f2a52;fill-opacity:1;fill-rule:nonzero;stroke:none;stroke-width:0.15635"
         id="path24" /><path
         d="m 316.406,222.105 c -6.66,10.45 -14.66,15.555 -30.215,15.555 -13.996,0 -21.543,-6.441 -21.543,-16.883 0,-12.004 9.766,-17.336 30.215,-22.441 31.992,-7.996 46.426,-20 46.426,-47.102 0,-25.105 -16.887,-44.656 -52.871,-44.656 -26.887,0 -45.547,7.332 -59.102,25.106 l 23.77,16.437 c 8.223,-10.215 17.559,-15.32 33.328,-15.32 17.774,0 23.77,7.769 23.77,17.097 0,10.665 -6.434,16.668 -31.317,23.106 -30.215,8.008 -45.332,22.441 -45.332,47.773 0,24.219 15.996,43.094 52.442,43.094 24.433,0 42.871,-8.211 53.757,-25.105 l -23.328,-16.661"
         style="fill:#0f2a52;fill-opacity:1;fill-rule:nonzero;stroke:none;stroke-width:0.15635"
         id="path26" /><path
         d="m 448.633,222.105 c -6.66,10.45 -14.66,15.555 -30.215,15.555 -13.996,0 -21.543,-6.441 -21.543,-16.883 0,-12.004 9.766,-17.336 30.215,-22.441 31.992,-7.996 46.426,-20 46.426,-47.102 0,-25.105 -16.887,-44.656 -52.871,-44.656 -26.887,0 -45.547,7.332 -59.102,25.106 l 23.77,16.437 c 8.222,-10.215 17.558,-15.32 33.328,-15.32 17.773,0 23.769,7.769 23.769,17.097 0,10.665 -6.433,16.668 -31.316,23.106 -30.215,8.008 -45.332,22.441 -45.332,47.773 0,24.219 15.996,43.094 52.441,43.094 24.434,0 42.871,-8.211 53.758,-25.105 l -23.328,-16.661"
         style="fill:#0f2a52;fill-opacity:1;fill-rule:nonzero;stroke:none;stroke-width:0.15635"
         id="path28" /><path
         d="m 532.207,134.801 h 64.434 v -26.223 h -95.539 v 153.293 h 31.105 v -127.07"
         style="fill:#0f2a52;fill-opacity:1;fill-rule:nonzero;stroke:none;stroke-width:0.15635"
         id="path30" /><path
         d="m 650.879,108.578 h -31.113 v 153.293 h 31.113 V 108.578"
         style="fill:#0f2a52;fill-opacity:1;fill-rule:nonzero;stroke:none;stroke-width:0.15635"
         id="path32" /><path
         d="M 803.074,261.871 V 108.578 H 777.09 l -59.766,94.863 v -94.863 h -29.551 v 153.293 h 25.77 l 59.992,-96.191 v 96.191 h 29.539"
         style="fill:#0f2a52;fill-opacity:1;fill-rule:nonzero;stroke:none;stroke-width:0.15635"
         id="path34" /><path
         d="m 948.418,188.336 v -13.992 c 0,-46.875 -21.777,-67.766 -56.438,-67.766 -34.433,0 -58.652,20.891 -58.652,67.766 v 19.547 c 0,49.543 24.219,69.98 58.652,69.98 32.219,0 51.543,-18.211 56.211,-49.539 h -29.773 c -2.656,13.992 -10.879,23.328 -26.438,23.328 -17.996,0 -27.546,-12.215 -27.546,-41.551 v -21.765 c 0,-29.328 9.55,-41.543 27.546,-41.543 17.551,0 24.661,10.887 26.438,29.324 h -25.762 v 26.211 h 55.762"
         style="fill:#0f2a52;fill-opacity:1;fill-rule:nonzero;stroke:none;stroke-width:0.15635"
         id="path36" /><path
         d="m 1073.98,261.871 v -26.437 h -64.43 v -34.43 h 57.76 v -26.223 h -57.76 v -39.98 h 64.43 v -26.223 h -95.535 v 153.293 h 95.535"
         style="fill:#0f2a52;fill-opacity:1;fill-rule:nonzero;stroke:none;stroke-width:0.15635"
         id="path38" /><path
         d="M 1215.3,261.871 V 108.578 h -25.98 l -59.77,94.863 V 108.578 H 1100 v 153.293 h 25.77 l 59.99,-96.191 v 96.191 h 29.54"
         style="fill:#0f2a52;fill-opacity:1;fill-rule:nonzero;stroke:none;stroke-width:0.15635"
         id="path40" /><path
         d="m 188.379,374.586 h -62.57 v 55.801 H 115.195 V 304.145 h 10.614 v 60.558 h 62.57 v -60.558 h 10.605 v 126.242 h -10.605 v -55.801"
         style="fill:#0f2a52;fill-opacity:1;fill-rule:nonzero;stroke:none;stroke-width:0.15635"
         id="path42" /><path
         d="m 306.074,359.762 c 0,-34.207 -13.547,-46.836 -34.219,-46.836 -20.675,0 -34.21,12.629 -34.21,46.836 v 15 c 0,34.035 13.535,46.836 34.21,46.836 20.672,0 34.219,-12.801 34.219,-46.836 z m -34.219,71.718 c -27.07,0 -44.824,-17.011 -44.824,-56.718 v -15 c 0,-39.883 17.754,-56.707 44.824,-56.707 27.079,0 44.825,16.824 44.825,56.707 v 15 c 0,39.707 -17.746,56.718 -44.825,56.718"
         style="fill:#0f2a52;fill-opacity:1;fill-rule:nonzero;stroke:none;stroke-width:0.15635"
         id="path44" /><path
         d="m 389.559,421.598 c 17.199,0 29.824,-8.047 34.035,-29.453 h 10.429 C 430,419.77 412.07,431.48 389.559,431.48 c -27.442,0 -44.825,-15.917 -44.825,-56.718 v -15 c 0,-40.801 17.383,-56.707 44.825,-56.707 21.593,0 40.254,11.336 44.277,39.695 h -10.242 c -4.024,-20.129 -15.735,-29.824 -34.035,-29.824 -21.407,0 -34.207,12.254 -34.207,46.836 v 15 c 0,34.406 12.625,46.836 34.207,46.836"
         style="fill:#0f2a52;fill-opacity:1;fill-rule:nonzero;stroke:none;stroke-width:0.15635"
         id="path46" /><path
         d="m 535.262,374.586 h -62.567 v 55.801 H 462.078 V 304.145 h 10.617 v 60.558 h 62.567 v -60.558 h 10.605 v 126.242 h -10.605 v -55.801"
         style="fill:#0f2a52;fill-opacity:1;fill-rule:nonzero;stroke:none;stroke-width:0.15635"
         id="path48" /><path
         d="m 620.215,372.203 c -18.301,4.024 -32.754,8.602 -32.754,26.707 0,15.559 11.531,22.688 28.906,22.688 17.383,0 26.16,-7.129 32.754,-16.828 l 8.418,6.035 c -8.789,13.91 -21.23,20.675 -40.801,20.675 -28.359,0 -39.883,-14.812 -39.883,-32.57 0,-22.5 16.094,-31.648 39.696,-36.219 23.789,-4.57 32.57,-11.894 32.57,-27.082 0,-12.254 -8.418,-22.683 -30.918,-22.683 -18.848,0 -27.629,6.953 -35.5,16.836 l -8.594,-6.035 c 9.329,-13.719 23.965,-20.672 44.094,-20.672 30.184,0 41.524,16.824 41.524,32.925 0,23.782 -15.735,31.106 -39.512,36.223"
         style="fill:#0f2a52;fill-opacity:1;fill-rule:nonzero;stroke:none;stroke-width:0.15635"
         id="path50" /><path
         d="m 727.637,421.598 c 17.195,0 29.824,-8.047 34.031,-29.453 h 10.43 c -4.024,27.625 -21.953,39.335 -44.461,39.335 -27.442,0 -44.824,-15.917 -44.824,-56.718 v -15 c 0,-40.801 17.382,-56.707 44.824,-56.707 21.59,0 40.254,11.336 44.277,39.695 h -10.246 c -4.023,-20.129 -15.73,-29.824 -34.031,-29.824 -21.407,0 -34.211,12.254 -34.211,46.836 v 15 c 0,34.406 12.629,46.836 34.211,46.836"
         style="fill:#0f2a52;fill-opacity:1;fill-rule:nonzero;stroke:none;stroke-width:0.15635"
         id="path52" /><path
         d="m 872.207,374.586 h -62.57 v 55.801 H 799.023 V 304.145 h 10.614 v 60.558 h 62.57 v -60.558 h 10.606 v 126.242 h -10.606 v -55.801"
         style="fill:#0f2a52;fill-opacity:1;fill-rule:nonzero;stroke:none;stroke-width:0.15635"
         id="path54" /><path
         d="m 998.477,355.738 c 0,-29.269 -12.071,-42.812 -34.211,-42.812 -22.137,0 -34.207,13.543 -34.207,42.812 v 74.649 h -10.618 v -74.649 c 0,-37.14 17.383,-52.683 44.825,-52.683 27.441,0 44.824,15.543 44.824,52.683 v 74.649 h -10.613 v -74.649"
         style="fill:#0f2a52;fill-opacity:1;fill-rule:nonzero;stroke:none;stroke-width:0.15635"
         id="path56" /><path
         d="m 1054.21,430.387 h -10.62 V 304.145 h 74.28 v 9.882 h -63.66 v 116.36"
         style="fill:#0f2a52;fill-opacity:1;fill-rule:nonzero;stroke:none;stroke-width:0.15635"
         id="path58" /><path
         d="m 1215.14,420.504 v 9.883 h -74.28 V 304.145 h 74.28 v 9.882 h -63.67 v 50.489 h 58.18 v 9.882 h -58.18 v 46.106 h 63.67"
         style="fill:#0f2a52;fill-opacity:1;fill-rule:nonzero;stroke:none;stroke-width:0.15635"
         id="path60" /></g></g></svg>
